HIERARCHY
ROOT SpineBase
{
  OFFSET 0.000000 0.000000 0.000000
  CHANNELS 6 Xposition Yposition Zposition Zrotation Xrotation Yrotation
  JOINT SpineMid
  {
    OFFSET 0.000000 26.646879 0.000000
    CHANNELS 3 Zrotation Xrotation Yrotation
    JOINT SpineShoulder
    {
      OFFSET -0.013387 19.865384 -0.607153
      CHANNELS 3 Zrotation Xrotation Yrotation
      JOINT Neck
      {
        OFFSET -0.001051 6.601656 -0.500247
        CHANNELS 3 Zrotation Xrotation Yrotation
        JOINT Head
        {
          OFFSET -3.621453 12.279469 1.168861
          CHANNELS 3 Zrotation Xrotation Yrotation
          End Site
          {
            OFFSET 0 0 0
          }
        }
      }
      JOINT ShoulderLeft
      {
        OFFSET -11.759181 -3.752733 4.450938
        CHANNELS 3 Zrotation Xrotation Yrotation
        JOINT ElbowLeft
        {
          OFFSET -0.693022 -21.453454 2.379233
          CHANNELS 3 Zrotation Xrotation Yrotation
          JOINT WristLeft
          {
            OFFSET -1.161939 -21.058315 -3.343759
            CHANNELS 3 Zrotation Xrotation Yrotation
            JOINT HandLeft
            {
              OFFSET 0.790283 -6.033244 -1.960037
              CHANNELS 3 Zrotation Xrotation Yrotation
              JOINT HandTipLeft
              {
                OFFSET 0.141003 -6.647232 -2.371174
                CHANNELS 3 Zrotation Xrotation Yrotation
                End Site
                {
                  OFFSET 0 0 0
                }
              }
              JOINT ThumbLeft
              {
                OFFSET -2.891124 0.930750 -1.245443
                CHANNELS 3 Zrotation Xrotation Yrotation
                End Site
                {
                  OFFSET 0 0 0
                }
              }
            }
          }
        }
      }
      JOINT ShoulderRight
      {
        OFFSET 9.810802 -2.833485 -8.657164
        CHANNELS 3 Zrotation Xrotation Yrotation
        JOINT ElbowRight
        {
          OFFSET 4.562794 -21.252025 -3.404391
          CHANNELS 3 Zrotation Xrotation Yrotation
          JOINT WristRight
          {
            OFFSET -1.822307 -20.650404 -6.174768
            CHANNELS 3 Zrotation Xrotation Yrotation
            JOINT HandRight
            {
              OFFSET -1.530122 -6.706729 -1.398178
              CHANNELS 3 Zrotation Xrotation Yrotation
              JOINT HandTipRight
              {
                OFFSET -1.899362 -5.729808 -1.239173
                CHANNELS 3 Zrotation Xrotation Yrotation
                End Site
                {
                  OFFSET 0 0 0
                }
              }
              JOINT ThumbRight
              {
                OFFSET 2.906007 -1.747214 -1.873259
                CHANNELS 3 Zrotation Xrotation Yrotation
                End Site
                {
                  OFFSET 0 0 0
                }
              }
            }
          }
        }
      }
    }
  }
  JOINT HipLeft
  {
    OFFSET -5.132908 0.385615 -0.531662
    CHANNELS 3 Zrotation Xrotation Yrotation
    JOINT KneeLeft
    {
      OFFSET 8.196267 -37.950478 1.780977
      CHANNELS 3 Zrotation Xrotation Yrotation
      JOINT AnkleLeft
      {
        OFFSET 4.789130 -28.175883 4.548483
        CHANNELS 3 Zrotation Xrotation Yrotation
        JOINT FootLeft
        {
          OFFSET 0.863081 -5.218689 -5.226111
          CHANNELS 3 Zrotation Xrotation Yrotation
          End Site
          {
            OFFSET 0 0 0
          }
        }
      }
    }
  }
  JOINT HipRight
  {
    OFFSET 4.814718 1.287897 -5.668010
    CHANNELS 3 Zrotation Xrotation Yrotation
    JOINT KneeRight
    {
      OFFSET 7.075797 -34.348005 -1.107686
      CHANNELS 3 Zrotation Xrotation Yrotation
      JOINT AnkleRight
      {
        OFFSET 4.744824 -31.570146 3.361689
        CHANNELS 3 Zrotation Xrotation Yrotation
        JOINT FootRight
        {
          OFFSET -3.602254 -5.667618 1.019191
          CHANNELS 3 Zrotation Xrotation Yrotation
          End Site
          {
            OFFSET 0 0 0
          }
        }
      }
    }
  }
}
MOTION
Frames: 5
Frame Time: 0.033333
21.475464 72.655152 369.370819 -0.000000 0.000000 27.309073 -0.000000 0.000000 -27.309073 -0.000000 0.000000 0.000000 -0.000000 0.000000 0.000000 0.000000 0.000000 0.000000 -0.000000 0.000000 0.000000 -0.000000 0.000000 0.000000 -0.000000 0.000000 0.000000 -0.000000 0.000000 0.000000 0.000000 0.000000 0.000000 0.000000 0.000000 0.000000 -0.000000 0.000000 0.000000 -0.000000 0.000000 0.000000 -0.000000 0.000000 0.000000 -0.000000 0.000000 0.000000 0.000000 0.000000 0.000000 0.000000 0.000000 0.000000 -0.000000 0.000000 -27.309073 -0.000000 0.000000 0.000000 -0.000000 0.000000 0.000000 0.000000 0.000000 0.000000 -0.000000 0.000000 -27.309073 -0.000000 0.000000 0.000000 -0.000000 0.000000 0.000000 0.000000 0.000000 0.000000
21.497434 72.662339 369.415731 0.010469 -0.075006 27.104955 0.024855 0.071539 -27.104964 -0.000000 0.000000 0.000000 -0.000000 0.000000 0.000000 0.000000 0.000000 0.000000 -0.000000 0.000000 0.000000 -0.000000 0.000000 0.000000 -0.049859 -1.079114 -0.126020 0.207068 -1.160189 0.021793 0.000000 0.000000 0.000000 0.000000 0.000000 0.000000 -0.000000 0.000000 0.000000 -0.000000 0.000000 0.000000 -1.234404 -0.102015 0.278892 2.600170 -1.737687 0.049424 0.000000 0.000000 0.000000 0.000000 0.000000 0.000000 0.024855 0.071539 -27.104964 -0.000000 0.000000 0.000000 -4.913390 -6.255255 3.856220 0.000000 0.000000 0.000000 0.024855 0.071539 -27.104964 -0.000000 0.000000 0.000000 -0.836924 -0.748953 0.318204 0.000000 0.000000 0.000000
21.516680 72.666594 369.461972 0.012416 -0.142330 26.875496 0.053266 0.132569 -26.875543 -0.000000 0.000000 0.000000 -0.000000 0.000000 0.000000 0.000000 0.000000 0.000000 -0.000000 0.000000 0.000000 0.180436 0.961066 -0.083091 -0.499183 -2.913817 -0.082590 0.504626 -2.126242 -0.004872 0.000000 0.000000 0.000000 0.000000 0.000000 0.000000 -0.000000 0.000000 0.000000 -0.000000 0.000000 0.000000 -2.353751 -0.186739 0.527237 4.452126 -2.955552 0.092442 0.000000 0.000000 0.000000 0.000000 0.000000 0.000000 -0.823350 0.936187 -26.851825 2.287603 -0.887910 0.087594 -9.984755 -11.193000 6.794537 0.000000 0.000000 0.000000 0.053266 0.132569 -26.875543 -0.000000 0.000000 0.000000 -1.421622 -1.353338 0.581922 0.000000 0.000000 0.000000
21.533200 72.667917 369.509543 0.005833 -0.201940 26.620366 0.085270 0.183147 -26.620492 -0.000000 0.000000 0.000000 -0.000000 0.000000 0.000000 0.000000 0.000000 0.000000 -0.198758 -1.173065 0.013802 0.339314 2.325363 -0.107806 -0.932420 -3.802419 -0.038962 0.849623 -2.753868 -0.064159 0.000000 0.000000 0.000000 0.000000 0.000000 0.000000 -0.000000 0.000000 0.000000 -0.000000 0.000000 0.000000 -3.383334 -0.254963 0.751455 5.627422 -3.694872 0.104011 0.000000 0.000000 0.000000 0.000000 0.000000 0.000000 -1.109061 1.276839 -26.582667 3.035725 -1.234756 0.108872 -13.077424 -15.050060 8.841285 0.000000 0.000000 0.000000 0.085270 0.183147 -26.620492 0.037860 0.862100 0.133418 -1.819094 -2.680898 0.640828 0.000000 0.000000 0.000000
21.546996 72.666307 369.558443 -0.009278 -0.253813 26.339303 0.120929 0.223346 -26.339560 -0.000000 0.000000 0.000000 -0.000000 0.000000 0.000000 0.000000 0.000000 0.000000 -0.310249 -1.558725 0.011709 0.323906 2.717197 -0.086505 -1.470369 -4.352545 0.051972 1.214908 -2.920027 -0.142012 0.000000 0.000000 0.000000 0.000000 0.000000 0.000000 -0.000000 0.000000 0.000000 -0.000000 0.000000 0.000000 -4.344555 -0.307130 0.956814 6.174339 -3.982349 0.073803 0.000000 0.000000 0.000000 0.000000 0.000000 0.000000 -1.293444 1.518955 -26.289085 3.524098 -1.521886 0.113211 -14.852482 -17.152821 10.048264 0.000000 0.000000 0.000000 0.120929 0.223346 -26.339560 0.042651 1.007637 0.155750 -1.961485 -3.169472 0.794524 0.000000 0.000000 0.000000
